<svg xmlns="http://www.w3.org/2000/svg" xmlns:xlink="http://www.w3.org/1999/xlink" width="200" height="200" class="icon" p-id="11842" t="1584161793108" version="1.1" viewBox="0 0 1024 1024"><defs><style type="text/css"/></defs><path fill="#e6e6e6" d="M232 152h80v80h-80v200a80 80 0 0 1-80 80 80 80 0 0 1 80 80v200h80v80h-80c-42.816-10.784-80-36-80-80v-160a80 80 0 0 0-80-80H32v-80h40a80 80 0 0 0 80-80v-160a80 80 0 0 1 80-80m560 0a80 80 0 0 1 80 80v160a80 80 0 0 0 80 80H992v80h-40a80 80 0 0 0-80 80v160a80 80 0 0 1-80 80h-80v-80h80V592a80 80 0 0 1 80-80 80 80 0 0 1-80-80V232h-80v-80h80m-280 480a40 40 0 0 1 0 80 40 40 0 0 1 0-80m-160 0a40 40 0 0 1 0 80 40 40 0 0 1 0-80m320 0a40 40 0 0 1 0 80 40 40 0 0 1 0-80z" p-id="11843"/></svg>